# xmcd
#
# Track frame offsets: 
#        182
#        17167
#        34182
#        42172
#        45255
#
# Disc length: 640 seconds
#
# Revision: 0
# Processed by: cddbd v1.5PL3 Copyright (c) Steve Scherf et al.
# Submitted via: ExactAudioCopy v0.95a5
#
DISCID=32027e05
DTITLE=Billy Ray Cyrus - Could've Been Me
DYEAR=1992
DGENRE=Country
TTITLE0=Could've Been Me(Radio Remix)
TTITLE1=Could've Been Me(Album Mix)
TTITLE2=Someday, Somewhere, Somehow
TTITLE3=Wher'm I Gonna Live?
TTITLE4=Some Gave All
EXTD=
EXTT0=
EXTT1=
EXTT2=
EXTT3=
EXTT4=
PLAYORDER=
